<svg width="44" height="59" viewBox="0 0 44 59" fill="none" xmlns="http://www.w3.org/2000/svg">
<path fill-rule="evenodd" clip-rule="evenodd" d="M9.03141 9.38026H0.839292C0.571165 11.3195 0.432129 13.3002 0.432129 15.3134C0.432129 24.9819 3.63222 33.9032 9.03141 41.0754C16.8558 51.4709 29.2989 58.1928 43.3121 58.1928L43.5679 58.192L43.5679 49.5929L43.3121 49.5943C38.2545 49.5943 33.4527 48.4991 29.1312 46.5331C27.1242 45.6201 25.2208 44.519 23.4435 43.2529C20.1053 40.8746 17.2118 37.9138 14.9115 34.518C11.2209 29.0718 9.05664 22.5077 9.03141 15.4394C9.03086 15.3975 9.03086 15.3554 9.03086 15.3134C9.03086 15.2713 9.03086 15.2294 9.03141 15.1869L9.03141 9.38026ZM37.6627 0.807129L37.6627 0.848379H43.3121L43.3121 9.38026H37.6627L37.6627 15.39C38.0913 18.678 39.5682 20.6371 43.3121 20.9623C43.3976 20.9623 43.4826 20.96 43.5679 20.9562L43.5679 29.4921L43.3121 29.4945C35.8524 28.5631 30.2998 25.2193 29.1858 16.2628H29.131L29.131 15.7855C28.9337 13.9009 28.9257 11.7763 29.131 9.3829L29.131 9.38026H23.4435L23.4435 14.8448L23.4488 14.8441C23.4435 23.4897 28.7428 34.1228 43.3121 35.4033L43.3121 43.7146C28.6467 43.792 15.7796 32.0584 14.9332 16.4902H14.9115L14.9115 16.0705L14.9115 9.38026H9.03141L9.03141 0.848379H14.9115L14.9115 0.807129H23.4435L23.4435 0.848379H29.131L29.131 0.807129H37.6627Z" fill="#00009E"/>
</svg>
